<svg xmlns="http://www.w3.org/2000/svg" viewBox="0 0 128 16" shape-rendering="crispEdges">
  <title>Queueworks room sheet - Phase 1</title>
  <rect width="128" height="16" fill="#111827"/>

  <!-- Cell 0: floor_tile -->
  <rect x="0" y="0" width="16" height="16" fill="#263241"/>
  <rect x="1" y="1" width="14" height="14" fill="#1b2633"/>
  <rect x="2" y="7" width="12" height="2" fill="#344255"/>
  <rect x="3" y="4" width="2" height="2" fill="#38bdf8"/>
  <rect x="11" y="10" width="2" height="2" fill="#f8c14a"/>

  <!-- Cell 1: wall_tile -->
  <rect x="16" y="0" width="16" height="16" fill="#111827"/>
  <rect x="17" y="1" width="14" height="14" fill="#263241"/>
  <rect x="18" y="3" width="12" height="2" fill="#344255"/>
  <rect x="18" y="8" width="12" height="2" fill="#344255"/>
  <rect x="20" y="5" width="2" height="2" fill="#38bdf8"/>
  <rect x="28" y="10" width="2" height="2" fill="#f8c14a"/>
  <rect x="17" y="14" width="14" height="1" fill="#0b1017"/>

  <!-- Cell 2: intake_lane -->
  <rect x="32" y="0" width="16" height="16" fill="#1b2633"/>
  <rect x="33" y="5" width="14" height="6" fill="#263241"/>
  <rect x="34" y="6" width="8" height="1" fill="#38bdf8"/>
  <rect x="34" y="9" width="8" height="1" fill="#38bdf8"/>
  <rect x="42" y="4" width="2" height="8" fill="#f8c14a"/>
  <rect x="44" y="6" width="2" height="4" fill="#39d98a"/>

  <!-- Cell 3: blocked_gate -->
  <rect x="48" y="0" width="16" height="16" fill="#111827"/>
  <rect x="49" y="2" width="14" height="12" fill="#263241"/>
  <rect x="51" y="3" width="2" height="10" fill="#f8c14a"/>
  <rect x="59" y="3" width="2" height="10" fill="#f8c14a"/>
  <rect x="53" y="6" width="6" height="1" fill="#38bdf8"/>
  <rect x="53" y="9" width="6" height="1" fill="#38bdf8"/>
  <rect x="54" y="5" width="5" height="5" fill="#ef476f"/>
  <rect x="56" y="10" width="3" height="2" fill="#ef476f"/>

  <!-- Cell 4: cleared_gate -->
  <rect x="64" y="0" width="16" height="16" fill="#111827"/>
  <rect x="65" y="2" width="14" height="12" fill="#263241"/>
  <rect x="67" y="3" width="2" height="10" fill="#f8c14a"/>
  <rect x="75" y="3" width="2" height="10" fill="#f8c14a"/>
  <rect x="69" y="6" width="6" height="1" fill="#38bdf8"/>
  <rect x="69" y="9" width="6" height="1" fill="#38bdf8"/>
  <rect x="71" y="5" width="2" height="6" fill="#39d98a"/>
  <rect x="73" y="7" width="2" height="2" fill="#39d98a"/>

  <!-- Cell 5: patchrunner_idle -->
  <rect x="80" y="0" width="16" height="16" fill="#111827"/>
  <rect x="85" y="2" width="6" height="5" fill="#38bdf8"/>
  <rect x="84" y="7" width="8" height="6" fill="#263241"/>
  <rect x="86" y="8" width="4" height="2" fill="#f8c14a"/>
  <rect x="83" y="10" width="2" height="3" fill="#38bdf8"/>
  <rect x="91" y="10" width="2" height="3" fill="#38bdf8"/>
  <rect x="85" y="13" width="2" height="2" fill="#39d98a"/>
  <rect x="89" y="13" width="2" height="2" fill="#39d98a"/>
  <rect x="87" y="4" width="2" height="1" fill="#f8fafc"/>

  <!-- Cell 6: patchrunner_step -->
  <rect x="96" y="0" width="16" height="16" fill="#111827"/>
  <rect x="102" y="2" width="6" height="5" fill="#38bdf8"/>
  <rect x="101" y="7" width="8" height="6" fill="#263241"/>
  <rect x="103" y="8" width="4" height="2" fill="#f8c14a"/>
  <rect x="99" y="10" width="2" height="3" fill="#38bdf8"/>
  <rect x="109" y="9" width="2" height="3" fill="#38bdf8"/>
  <rect x="101" y="13" width="2" height="2" fill="#39d98a"/>
  <rect x="106" y="13" width="3" height="2" fill="#39d98a"/>
  <rect x="104" y="4" width="2" height="1" fill="#f8fafc"/>

  <!-- Cell 7: interact_spark -->
  <rect x="112" y="0" width="16" height="16" fill="#111827"/>
  <rect x="119" y="2" width="2" height="7" fill="#38bdf8"/>
  <rect x="119" y="11" width="2" height="2" fill="#38bdf8"/>
  <rect x="116" y="5" width="2" height="2" fill="#f8c14a"/>
  <rect x="122" y="5" width="2" height="2" fill="#f8c14a"/>
  <rect x="117" y="13" width="6" height="1" fill="#39d98a"/>
  <rect x="115" y="3" width="1" height="1" fill="#f8fafc"/>
  <rect x="124" y="10" width="1" height="1" fill="#ef476f"/>
</svg>
