<svg xmlns="http://www.w3.org/2000/svg" width="96" height="16" viewBox="0 0 96 16" shape-rendering="crispEdges">
  <rect width="96" height="16" fill="#111827"/>

  <g id="blocked_return">
    <rect x="1" y="2" width="14" height="12" fill="#263241"/>
    <rect x="3" y="4" width="10" height="8" fill="#f8c14a"/>
    <rect x="5" y="5" width="6" height="6" fill="#111827"/>
    <rect x="4" y="7" width="8" height="2" fill="#ef476f"/>
    <rect x="7" y="4" width="2" height="8" fill="#ef476f"/>
    <rect x="2" y="13" width="12" height="1" fill="#38bdf8"/>
  </g>

  <g id="retry_prompt" transform="translate(16 0)">
    <rect x="1" y="1" width="14" height="14" fill="#263241"/>
    <rect x="5" y="4" width="6" height="6" fill="#f8c14a"/>
    <rect x="7" y="6" width="2" height="2" fill="#111827"/>
    <rect x="3" y="3" width="8" height="2" fill="#38bdf8"/>
    <rect x="3" y="3" width="2" height="6" fill="#38bdf8"/>
    <rect x="3" y="8" width="5" height="2" fill="#38bdf8"/>
    <rect x="8" y="7" width="2" height="2" fill="#38bdf8"/>
    <rect x="10" y="6" width="2" height="2" fill="#38bdf8"/>
    <rect x="5" y="12" width="7" height="1" fill="#39d98a"/>
  </g>

  <g id="diagnostic_scratch" transform="translate(32 0)">
    <rect x="2" y="2" width="12" height="12" fill="#263241"/>
    <rect x="4" y="4" width="8" height="1" fill="#38bdf8"/>
    <rect x="4" y="7" width="8" height="1" fill="#f8c14a"/>
    <rect x="4" y="10" width="8" height="1" fill="#f8fafc"/>
    <rect x="5" y="3" width="2" height="2" fill="#ef476f"/>
    <rect x="7" y="5" width="2" height="2" fill="#ef476f"/>
    <rect x="9" y="7" width="2" height="2" fill="#ef476f"/>
    <rect x="11" y="9" width="2" height="2" fill="#ef476f"/>
  </g>

  <g id="visible_spill" transform="translate(48 0)">
    <rect x="1" y="10" width="14" height="3" fill="#263241"/>
    <rect x="2" y="6" width="3" height="3" fill="#f8c14a"/>
    <rect x="7" y="4" width="3" height="3" fill="#f8c14a"/>
    <rect x="11" y="7" width="3" height="3" fill="#f8c14a"/>
    <rect x="3" y="7" width="1" height="1" fill="#111827"/>
    <rect x="8" y="5" width="1" height="1" fill="#111827"/>
    <rect x="12" y="8" width="1" height="1" fill="#111827"/>
    <rect x="2" y="13" width="12" height="1" fill="#38bdf8"/>
  </g>

  <g id="sealed_misread" transform="translate(64 0)">
    <rect x="2" y="3" width="12" height="10" fill="#263241"/>
    <rect x="5" y="2" width="6" height="3" fill="#38bdf8"/>
    <rect x="4" y="6" width="8" height="5" fill="#f8c14a"/>
    <rect x="7" y="7" width="2" height="3" fill="#111827"/>
    <rect x="3" y="4" width="2" height="2" fill="#ef476f"/>
    <rect x="11" y="10" width="2" height="2" fill="#ef476f"/>
    <rect x="5" y="13" width="6" height="1" fill="#ef476f"/>
  </g>

  <g id="route_confirmed" transform="translate(80 0)">
    <rect x="1" y="5" width="11" height="6" fill="#263241"/>
    <rect x="2" y="7" width="8" height="2" fill="#39d98a"/>
    <rect x="10" y="5" width="2" height="2" fill="#39d98a"/>
    <rect x="12" y="6" width="2" height="2" fill="#39d98a"/>
    <rect x="10" y="9" width="2" height="2" fill="#39d98a"/>
    <rect x="3" y="4" width="9" height="1" fill="#38bdf8"/>
    <rect x="3" y="11" width="9" height="1" fill="#f8c14a"/>
    <rect x="13" y="3" width="1" height="10" fill="#38bdf8"/>
  </g>
</svg>
