<svg xmlns="http://www.w3.org/2000/svg" width="96" height="16" viewBox="0 0 96 16" shape-rendering="crispEdges">
  <rect width="96" height="16" fill="none"/>

  <!-- Cell 0: keyboard_move -->
  <g id="keyboard_move">
    <rect x="1" y="4" width="14" height="9" fill="#263241"/>
    <rect x="1" y="4" width="14" height="1" fill="#38bdf8"/>
    <rect x="1" y="12" width="14" height="1" fill="#111827"/>
    <rect x="7" y="5" width="2" height="2" fill="#f8fafc"/>
    <rect x="7" y="10" width="2" height="2" fill="#f8fafc"/>
    <rect x="4" y="8" width="2" height="2" fill="#f8fafc"/>
    <rect x="10" y="8" width="2" height="2" fill="#f8fafc"/>
    <rect x="7" y="8" width="2" height="2" fill="#39d98a"/>
  </g>

  <!-- Cell 1: click_interact -->
  <g id="click_interact" transform="translate(16 0)">
    <rect x="2" y="2" width="10" height="10" fill="#263241"/>
    <rect x="2" y="2" width="10" height="1" fill="#38bdf8"/>
    <rect x="2" y="11" width="10" height="1" fill="#111827"/>
    <rect x="5" y="5" width="2" height="7" fill="#f8fafc"/>
    <rect x="7" y="7" width="2" height="4" fill="#f8fafc"/>
    <rect x="9" y="9" width="2" height="2" fill="#f8fafc"/>
    <rect x="12" y="2" width="1" height="1" fill="#39d98a"/>
    <rect x="13" y="3" width="1" height="1" fill="#39d98a"/>
    <rect x="12" y="4" width="1" height="1" fill="#39d98a"/>
  </g>

  <!-- Cell 2: blocked_collision -->
  <g id="blocked_collision" transform="translate(32 0)">
    <rect x="1" y="3" width="6" height="10" fill="#263241"/>
    <rect x="8" y="3" width="7" height="10" fill="#263241"/>
    <rect x="1" y="3" width="14" height="1" fill="#38bdf8"/>
    <rect x="3" y="5" width="2" height="6" fill="#f8c14a"/>
    <rect x="10" y="5" width="2" height="6" fill="#f8c14a"/>
    <rect x="6" y="7" width="4" height="2" fill="#ef476f"/>
    <rect x="5" y="6" width="1" height="1" fill="#ef476f"/>
    <rect x="10" y="9" width="1" height="1" fill="#ef476f"/>
  </g>

  <!-- Cell 3: retry_return -->
  <g id="retry_return" transform="translate(48 0)">
    <rect x="6" y="5" width="5" height="6" fill="#f8c14a"/>
    <rect x="6" y="5" width="5" height="1" fill="#f8fafc"/>
    <rect x="2" y="4" width="2" height="6" fill="#38bdf8"/>
    <rect x="4" y="3" width="6" height="2" fill="#38bdf8"/>
    <rect x="10" y="4" width="2" height="2" fill="#38bdf8"/>
    <rect x="12" y="6" width="2" height="4" fill="#38bdf8"/>
    <rect x="10" y="10" width="3" height="2" fill="#39d98a"/>
    <rect x="9" y="12" width="2" height="1" fill="#39d98a"/>
  </g>

  <!-- Cell 4: route_open_pass -->
  <g id="route_open_pass" transform="translate(64 0)">
    <rect x="1" y="6" width="9" height="4" fill="#39d98a"/>
    <rect x="10" y="4" width="2" height="8" fill="#39d98a"/>
    <rect x="12" y="5" width="2" height="6" fill="#39d98a"/>
    <rect x="14" y="7" width="1" height="2" fill="#39d98a"/>
    <rect x="2" y="3" width="2" height="2" fill="#38bdf8"/>
    <rect x="5" y="11" width="2" height="2" fill="#f8c14a"/>
    <rect x="8" y="3" width="2" height="2" fill="#f8c14a"/>
  </g>

  <!-- Cell 5: smoke_fail -->
  <g id="smoke_fail" transform="translate(80 0)">
    <rect x="2" y="3" width="12" height="10" fill="#263241"/>
    <rect x="2" y="3" width="12" height="1" fill="#38bdf8"/>
    <rect x="3" y="5" width="10" height="7" fill="#111827"/>
    <rect x="5" y="6" width="2" height="2" fill="#ef476f"/>
    <rect x="9" y="6" width="2" height="2" fill="#ef476f"/>
    <rect x="7" y="8" width="2" height="2" fill="#ef476f"/>
    <rect x="5" y="10" width="2" height="2" fill="#ef476f"/>
    <rect x="9" y="10" width="2" height="2" fill="#ef476f"/>
  </g>
</svg>
