<svg xmlns="http://www.w3.org/2000/svg" width="96" height="16" viewBox="0 0 96 16" shape-rendering="crispEdges">
  <rect width="96" height="16" fill="none"/>
  <rect x="1" y="1" width="14" height="14" fill="#111827"/>
  <rect x="2" y="2" width="12" height="12" fill="#263241"/>
  <rect x="4" y="4" width="2" height="8" fill="#f8c14a"/>
  <rect x="10" y="4" width="2" height="8" fill="#f8c14a"/>
  <rect x="6" y="7" width="4" height="2" fill="#38bdf8"/>
  <rect x="7" y="9" width="2" height="2" fill="#39d98a"/>
  <rect x="17" y="1" width="14" height="14" fill="#111827"/>
  <rect x="18" y="2" width="12" height="12" fill="#263241"/>
  <rect x="20" y="4" width="8" height="8" fill="#38bdf8"/>
  <rect x="21" y="5" width="6" height="6" fill="#263241"/>
  <rect x="21" y="6" width="6" height="1" fill="#f8c14a"/>
  <rect x="21" y="9" width="4" height="1" fill="#f8c14a"/>
  <rect x="33" y="1" width="14" height="14" fill="#111827"/>
  <rect x="34" y="2" width="12" height="12" fill="#263241"/>
  <rect x="36" y="4" width="8" height="8" fill="#ef476f"/>
  <rect x="37" y="5" width="6" height="6" fill="#263241"/>
  <rect x="39" y="4" width="2" height="8" fill="#ef476f"/>
  <rect x="37" y="7" width="6" height="2" fill="#ef476f"/>
  <rect x="49" y="1" width="14" height="14" fill="#111827"/>
  <rect x="50" y="2" width="12" height="12" fill="#263241"/>
  <rect x="53" y="4" width="3" height="7" fill="#38bdf8"/>
  <rect x="57" y="4" width="3" height="7" fill="#38bdf8"/>
  <rect x="52" y="11" width="9" height="1" fill="#f8c14a"/>
  <rect x="54" y="6" width="5" height="1" fill="#39d98a"/>
  <rect x="55" y="8" width="3" height="1" fill="#39d98a"/>
  <rect x="65" y="1" width="14" height="14" fill="#111827"/>
  <rect x="66" y="2" width="12" height="12" fill="#263241"/>
  <rect x="69" y="3" width="3" height="7" fill="#f8c14a"/>
  <rect x="68" y="10" width="5" height="1" fill="#f8c14a"/>
  <rect x="68" y="12" width="5" height="1" fill="#f8c14a"/>
  <rect x="69" y="4" width="3" height="2" fill="#ef476f"/>
  <rect x="70" y="8" width="1" height="1" fill="#ef476f"/>
  <rect x="81" y="1" width="14" height="14" fill="#111827"/>
  <rect x="82" y="2" width="12" height="12" fill="#263241"/>
  <rect x="84" y="6" width="3" height="4" fill="#38bdf8"/>
  <rect x="87" y="5" width="2" height="6" fill="#38bdf8"/>
  <rect x="89" y="4" width="3" height="8" fill="#38bdf8"/>
  <rect x="85" y="11" width="6" height="1" fill="#39d98a"/>
  <rect x="88" y="7" width="2" height="2" fill="#f8c14a"/>
</svg>
